<svg xmlns="http://www.w3.org/2000/svg" xmlns:xlink="http://www.w3.org/1999/xlink" width="64" zoomAndPan="magnify" viewBox="0 0 48 48" height="64" preserveAspectRatio="xMidYMid meet" version="1.0"><defs><clipPath id="6852f501fb"><path d="M 12.988281 8.828125 L 35.027344 8.828125 L 35.027344 38.214844 L 12.988281 38.214844 Z M 12.988281 8.828125 " clip-rule="nonzero"/></clipPath><clipPath id="a9cc3dbc9b"><path d="M 44.460938 43.402344 L 44.8125 43.402344 L 44.8125 43.726562 L 44.460938 43.726562 Z M 44.460938 43.402344 " clip-rule="nonzero"/></clipPath><clipPath id="dac497e69b"><path d="M 44.792969 43.640625 C 44.128906 43.859375 44.71875 43.421875 44.71875 43.421875 " clip-rule="nonzero"/></clipPath><clipPath id="fe558109fb"><path d="M 0.460938 0.402344 L 0.8125 0.402344 L 0.8125 0.726562 L 0.460938 0.726562 Z M 0.460938 0.402344 " clip-rule="nonzero"/></clipPath><clipPath id="1fedb2b7b9"><path d="M 0.792969 0.640625 C 0.128906 0.859375 0.71875 0.421875 0.71875 0.421875 " clip-rule="nonzero"/></clipPath><clipPath id="78faecfe5d"><rect x="0" width="1" y="0" height="1"/></clipPath></defs><g clip-path="url(#6852f501fb)"><path fill="#ffbd59" d="M 14.957031 38.164062 C 15.597656 38.164062 16.328125 37.890625 17.085938 37.363281 L 33.382812 26.21875 C 34.433594 25.507812 35.007812 24.523438 35.007812 23.492188 C 35.007812 22.464844 34.433594 21.480469 33.382812 20.769531 L 17.109375 9.625 C 16.351562 9.097656 15.597656 8.84375 14.957031 8.84375 C 13.742188 8.84375 12.988281 9.828125 12.988281 11.453125 L 12.988281 35.554688 C 12.988281 37.179688 13.742188 38.164062 14.957031 38.164062 Z M 14.957031 38.164062 " fill-opacity="1" fill-rule="nonzero"/></g><g clip-path="url(#a9cc3dbc9b)"><g clip-path="url(#dac497e69b)"><g transform="matrix(1, 0, 0, 1, 44, 43)"><g clip-path="url(#78faecfe5d)"><g clip-path="url(#fe558109fb)"><g clip-path="url(#1fedb2b7b9)"><rect x="-54.56" width="69.12" fill="#0571d3" height="69.120001" y="-53.56" fill-opacity="1"/></g></g></g></g></g></g></svg>